<svg xmlns="http://www.w3.org/2000/svg" viewBox="0 0 800 400"><title>Sqrl logo wordmark</title><g id="mark"><path id="_Compound_Path_" data-name="&lt;Compound Path&gt;" d="M348.15,258.59c7-10.1,16.16-24.75,16.16-33a24.22,24.22,0,0,0-28.75-23.8L321.72,138a41.29,41.29,0,0,0,17.19-27l-9.8-7.27s-9.17-6.77-19-6.78V80.73a16.18,16.18,0,0,0-15.73,12.42V80.73s-13.89-.41-16.22,16.15l-20,141.95a97.16,97.16,0,0,0-89.56-59.49,77.75,77.75,0,0,0-77.75,77.75,62.2,62.2,0,0,0,62.2,62.2,49.76,49.76,0,0,0,49.76-49.76H373.55S365.92,255.88,348.15,258.59Zm-49.76-130.4a10.44,10.44,0,1,1,10.44-10.44A10.44,10.44,0,0,1,298.39,128.18Z"/></g><g id="wordmark"><path id="_Path_" data-name="&lt;Path&gt;" d="M689,272.42c8.23,0,15-2,20.18-5.94L697.31,248.9a13.68,13.68,0,0,1-8.54,2.68A11.22,11.22,0,0,1,680,248c-2.12-2.34-3.19-5.73-3.19-10.09v-94.1H651.47v93.9c0,10.77,3.14,19.35,9.34,25.48S676.49,272.42,689,272.42Z"/><path id="_Compound_Path_2" data-name="&lt;Compound Path&gt;" d="M547,175.38v10.95c-10.56-14-28.47-12.92-28.47-12.92-12.82,0-23.45,4.74-31.61,14.09s-12.38,21.33-12.38,35.41,4.17,26,12.38,35.42,18.79,14.09,31.61,14.09c0,0,18.24,1.59,28.47-12.92v42.54h25V175.38ZM524.8,250.6c-13.93,0-25.26-12.46-25.26-27.78S510.87,195,524.8,195s25.26,12.46,25.26,27.78S538.73,250.6,524.8,250.6Z"/><path id="_Path_2" data-name="&lt;Path&gt;" d="M606,192.11V175.38H580.64v95.08H606V222.92c0-40.08,38.6-24.7,38.6-24.7V174.69C617.47,166.38,606,192.11,606,192.11Z"/><path id="_Compound_Path_3" data-name="&lt;Compound Path&gt;" d="M492.17,237.73,487,217.51c-5.44-4.06-16.33-5.29-25.4-5.55-.56-1.16-11.81-24-27.4-38.55H401.77c-20.8,69.65-60.4,89.47-60.4,89.47l32.18,6.64c26.14-17.78,48.26-77.08,48.26-77.08a169.92,169.92,0,0,1,14.58,20.75,49.37,49.37,0,0,0-20.48,12.09,29.2,29.2,0,0,0,0,41.29c11.4,11.4,32.6,12.62,44,1.22,10.29-10.29,10.64-24.41,8.34-36.1C477,232.12,486.36,233.66,492.17,237.73Zm-45.45,13.89c-2.92,4.52-9.92,5.6-14.43,2.68a9.74,9.74,0,0,1-2.89-13.47c5.41-8.37,17-8.42,17-8.42S452.08,243.34,446.72,251.62Z"/></g></svg>